REM MD5 7968694ae75b2fb11ea3ba597d64ec74
FILE "Euro Demo 83 (Europe).bin" BINARY
  TRACK 01 MODE2/2352
    INDEX 01 00:00:00
  TRACK 02 AUDIO
    INDEX 00 53:06:29
    INDEX 01 53:08:29
  TRACK 03 AUDIO
    INDEX 00 55:07:20
    INDEX 01 55:09:20
  TRACK 04 AUDIO
    INDEX 00 59:32:12
    INDEX 01 59:34:12
  TRACK 05 AUDIO
    INDEX 00 61:46:67
    INDEX 01 61:48:67
  TRACK 06 AUDIO
    INDEX 00 62:34:69
    INDEX 01 62:36:69
REM LEADOUT 65:38:26
